<svg width="15" height="15" fill="none" xmlns="http://www.w3.org/2000/svg"><path fill-rule="evenodd" clip-rule="evenodd" d="M12.979 0H2.02A2.021 2.021 0 000 2.021V12.98C0 14.095.905 15 2.021 15h5.404l.01-5.36H6.042a.328.328 0 01-.328-.327l-.007-1.728a.329.329 0 01.328-.33h1.39v-1.67c0-1.937 1.184-2.992 2.912-2.992h1.418c.182 0 .329.147.329.329v1.456a.329.329 0 01-.328.329h-.87c-.94 0-1.123.447-1.123 1.103v1.445h2.066c.196 0 .35.172.326.367L11.95 9.35a.329.329 0 01-.326.29H9.773L9.763 15h3.216A2.021 2.021 0 0015 12.98V2.02A2.021 2.021 0 0012.979 0" fill="#4267B2"/></svg>