<svg xmlns="http://www.w3.org/2000/svg" width="160" height="45" viewBox="0 0 160 45"><g fill="none" fill-rule="evenodd"><path fill="#000" d="M160 40.49c0 2.491-2.06 4.51-4.607 4.51H4.613C2.067 45 0 42.981 0 40.49V4.516C0 2.026 2.067 0 4.613 0h150.778C157.941 0 160 2.026 160 4.517v35.972H160"/><path fill="#FFF" d="M32.29 22.413c-.03-3.223 2.631-4.79 2.753-4.865-1.507-2.203-3.843-2.504-4.664-2.527-1.961-.207-3.864 1.177-4.863 1.177-1.02 0-2.56-1.157-4.217-1.123-2.133.033-4.13 1.272-5.226 3.196-2.26 3.923-.574 9.688 1.59 12.86 1.084 1.552 2.35 3.286 4.005 3.225 1.62-.068 2.226-1.037 4.183-1.037 1.937 0 2.506 1.037 4.195.998 1.74-.029 2.835-1.56 3.88-3.127 1.251-1.78 1.754-3.534 1.774-3.624-.041-.013-3.378-1.29-3.41-5.153M28.81 12.09c.87-1.093 1.467-2.58 1.302-4.089-1.262.056-2.84.874-3.747 1.944-.804.942-1.522 2.486-1.336 3.938 1.417.106 2.872-.717 3.781-1.793m28.513 16.67l-1.122-3.474c-.119-.356-.34-1.192-.67-2.508h-.039c-.13.567-.341 1.402-.63 2.508l-1.102 3.474h3.563zm3.88 5.549h-2.265l-1.24-3.909h-4.312l-1.182 3.909H50L54.272 21h2.64l4.292 13.308zm8.845-4.353c0-.934-.21-1.704-.63-2.31-.46-.631-1.077-.948-1.851-.948-.525 0-1.002.176-1.428.524a2.42 2.42 0 00-.836 1.373 2.79 2.79 0 00-.099.65v1.6c0 .698.213 1.287.64 1.767.427.481.982.721 1.664.721.8 0 1.425-.31 1.87-.928.446-.619.67-1.435.67-2.449zm2.166-.078c0 1.632-.44 2.922-1.32 3.869-.787.843-1.765 1.264-2.933 1.264-1.26 0-2.166-.454-2.717-1.363h-.04v5.055h-2.126V28.356c0-1.026-.027-2.079-.079-3.159h1.87l.119 1.521h.04C65.736 25.572 66.813 25 68.256 25c1.13 0 2.071.447 2.826 1.342.755.896 1.132 2.074 1.132 3.535zm8.834.078c0-.934-.21-1.704-.63-2.31-.46-.631-1.077-.948-1.851-.948-.526 0-1.002.176-1.429.524a2.43 2.43 0 00-.835 1.373c-.065.263-.099.48-.099.65v1.6c0 .698.213 1.287.638 1.767.427.481.983.721 1.666.721.8 0 1.424-.31 1.87-.928.446-.619.67-1.435.67-2.449zm2.166-.078c0 1.632-.44 2.922-1.32 3.869-.787.843-1.766 1.264-2.933 1.264-1.261 0-2.167-.454-2.717-1.363h-.04v5.055h-2.126V28.356c0-1.026-.027-2.079-.079-3.159h1.87l.119 1.521h.04C76.736 25.572 77.811 25 79.256 25c1.128 0 2.071.447 2.826 1.342.754.896 1.132 2.074 1.132 3.535zm13.019.897c0 1.131-.392 2.052-1.18 2.763-.864.778-2.068 1.165-3.614 1.165-1.427 0-2.573-.276-3.44-.829l.493-1.777a5.816 5.816 0 003.073.849c.801 0 1.424-.181 1.872-.544.447-.362.668-.847.668-1.454 0-.54-.182-.995-.551-1.364-.366-.369-.977-.712-1.83-1.029-2.324-.869-3.486-2.142-3.486-3.817 0-1.093.408-1.99 1.222-2.689.812-.699 1.895-1.048 3.25-1.048 1.207 0 2.21.21 3.01.631l-.532 1.738c-.748-.408-1.593-.612-2.54-.612-.748 0-1.332.184-1.75.553-.355.329-.532.73-.532 1.205 0 .526.202.961.61 1.302.354.317.997.659 1.93 1.028 1.142.461 1.98 1 2.52 1.618.538.619.807 1.39.807 2.311m6.594-3.785h-2.343v4.659c0 1.185.412 1.777 1.24 1.777.38 0 .696-.033.946-.098l.057 1.619c-.418.157-.969.236-1.653.236-.84 0-1.496-.257-1.97-.769-.47-.514-.709-1.376-.709-2.587v-4.837H97v-1.6h1.396v-1.757l2.089-.632v2.389h2.343v1.6m8.339 2.996c0-.884-.19-1.643-.572-2.277-.446-.766-1.083-1.148-1.909-1.148-.854 0-1.504.382-1.95 1.148-.381.634-.57 1.405-.57 2.317 0 .885.189 1.644.57 2.277.46.765 1.104 1.148 1.931 1.148.812 0 1.45-.389 1.91-1.168.392-.646.59-1.413.59-2.297zm2.206-.069c0 1.475-.42 2.686-1.26 3.633-.88.974-2.05 1.461-3.507 1.461-1.404 0-2.522-.467-3.355-1.402-.834-.934-1.251-2.113-1.251-3.534 0-1.487.429-2.705 1.29-3.652.858-.948 2.017-1.422 3.474-1.422 1.405 0 2.534.467 3.388 1.402.814.908 1.22 2.079 1.22 3.514zm6.748-2.844a3.676 3.676 0 00-.67-.058c-.748 0-1.326.283-1.733.849-.355.5-.532 1.132-.532 1.895v5.035h-2.125l.019-6.574c0-1.107-.027-2.114-.08-3.022h1.853l.078 1.836h.058c.224-.631.579-1.139 1.064-1.519A2.564 2.564 0 01119.59 25c.196 0 .374.014.531.039v2.033m7.357 1.936c.014-.632-.124-1.177-.412-1.639-.368-.592-.934-.888-1.695-.888-.695 0-1.26.289-1.692.869-.355.461-.566 1.014-.63 1.658h4.43zm2.028.553c0 .382-.025.704-.078.967h-6.379c.025.948.334 1.673.925 2.173.537.447 1.234.671 2.086.671.945 0 1.806-.152 2.581-.455l.333 1.481c-.905.395-1.974.593-3.208.593-1.484 0-2.649-.438-3.496-1.314-.845-.875-1.27-2.05-1.27-3.524 0-1.448.393-2.653 1.183-3.613.826-1.027 1.942-1.54 3.346-1.54 1.379 0 2.423.513 3.132 1.54.563.816.845 1.824.845 3.021zm-79.22-14.67v-.814c.682.252 1.273.378 1.77.378.443 0 .797-.111 1.062-.334.265-.223.398-.518.398-.888 0-.445-.175-.784-.523-1.017-.349-.233-.859-.35-1.53-.35h-.136v-.65h.128c.6 0 1.066-.109 1.397-.327.331-.218.497-.527.497-.925 0-.317-.112-.554-.337-.712-.224-.158-.558-.237-1.004-.237-.466 0-1.003.112-1.612.338v-.747a5.37 5.37 0 011.665-.273c.712 0 1.263.136 1.652.407.39.271.585.656.585 1.154 0 .77-.472 1.294-1.415 1.573.507.082.901.272 1.184.569.283.297.424.669.424 1.114 0 .571-.232 1.05-.696 1.435-.465.385-1.04.578-1.725.578a5.88 5.88 0 01-1.784-.273zm8.405-.497c-.518.477-1.018.716-1.498.716-.396 0-.724-.124-.985-.371a1.239 1.239 0 01-.39-.939c0-.521.218-.922.656-1.202.438-.28 1.066-.42 1.883-.42h.207v-.575c0-.554-.284-.83-.853-.83-.457 0-.95.14-1.48.421v-.716c.582-.237 1.129-.356 1.639-.356.533 0 .926.12 1.18.36.253.24.38.614.38 1.121v2.162c0 .495.152.743.457.743.038 0 .093-.006.167-.018l.061.48a1.49 1.49 0 01-.65.14c-.404 0-.662-.239-.774-.716zm-.127-.47v-1.236l-.29-.008c-.475 0-.858.09-1.151.27-.293.18-.44.417-.44.71a.71.71 0 00.22.527.737.737 0 00.536.215c.36 0 .735-.16 1.125-.479zM61.701 15v-4.772h3.471v.76h-2.606V15h-.865zm4.947 1.736v-6.508h.866v.896c.354-.668.886-1.002 1.595-1.002.574 0 1.026.21 1.356.628.33.42.494.992.494 1.719 0 .79-.187 1.429-.56 1.914a1.772 1.772 0 01-1.475.727 1.787 1.787 0 01-1.41-.65v2.276h-.866zm.866-2.874c.445.398.87.597 1.274.597.832 0 1.248-.634 1.248-1.902 0-1.12-.369-1.68-1.107-1.68-.484 0-.955.263-1.415.788v2.197zm4.951 2.874v-.76h.123c.463 0 .779-.058.947-.174.169-.116.326-.383.473-.802l-1.846-4.772h.932l1.384 3.585h.009l1.437-3.585h.817l-1.867 4.662c-.323.806-.616 1.315-.882 1.527-.265.213-.74.319-1.426.319h-.1zm5.172-1.833v-.73c.457.177.927.264 1.41.264.337 0 .61-.076.82-.23a.712.712 0 00.314-.6c0-.29-.116-.508-.347-.653-.231-.145-.579-.217-1.042-.217h-.114v-.571h.145c.41 0 .719-.058.925-.174a.561.561 0 00.31-.52.57.57 0 00-.277-.517c-.184-.116-.461-.174-.83-.174-.37 0-.78.08-1.23.242v-.699a4.517 4.517 0 011.388-.202c.574 0 1.023.103 1.347.308.324.205.485.49.485.857 0 .231-.073.443-.22.635-.146.192-.364.365-.654.52.34.106.595.256.767.45.171.196.257.435.257.72 0 .43-.197.787-.591 1.072-.394.284-.889.426-1.483.426-.387 0-.847-.069-1.38-.207zm5.312.097v-4.772h.813v3.612l2.223-3.612h.866V15h-.813v-3.612L83.818 15h-.87zm7.065 0v-4.078h-1.683v-.694h4.232v.694H90.88V15h-.866zm7.518-.154c-.58.176-1.076.264-1.49.264-.703 0-1.276-.234-1.72-.701-.444-.467-.666-1.073-.666-1.817 0-.724.196-1.317.587-1.78a1.877 1.877 0 011.5-.694c.578 0 1.024.205 1.339.615.315.41.472.993.472 1.749l-.004.268h-3.01c.126 1.134.68 1.7 1.665 1.7.36 0 .803-.096 1.327-.29v.686zM94.58 12.1h2.105c0-.888-.331-1.332-.993-1.332-.665 0-1.036.444-1.112 1.332zm8.546 2.9v-4.772h1.66c.505 0 .882.086 1.134.259.252.173.378.432.378.778 0 .293-.076.542-.228.749-.152.206-.381.371-.686.494.37.12.646.287.83.501.185.214.278.476.278.787 0 .378-.137.673-.409.885-.272.213-.647.319-1.125.319h-1.832zm.86-.65h.361c.49 0 .818-.044.985-.13.167-.086.25-.254.25-.503a.776.776 0 00-.327-.648c-.219-.166-.505-.249-.86-.249h-.408v1.53zm0-2.101h.436c.66 0 .989-.268.989-.804a.465.465 0 00-.235-.424c-.157-.095-.39-.143-.701-.143h-.488v1.371z"/></g></svg>