<svg width="136" height="332" viewBox="0 0 136 332" xmlns="http://www.w3.org/2000/svg"><g fill="none" fill-rule="evenodd"><path d="M-59-3h300v340H-59z"/><path d="M15.552 276.007l79.862 34.46" fill="#FFF"/><path d="M15.552 276.007l79.862 34.46" stroke="#00A246" stroke-width="2" stroke-linecap="round" stroke-linejoin="round"/><path d="M19.912 278.456L7.266 290.933" fill="#FFF"/><path d="M19.912 278.456L7.266 290.933" stroke="#00A246" stroke-width="2" stroke-linecap="round" stroke-linejoin="round"/><path d="M25.012 280.658l-11.815 12.835" fill="#FFF"/><path d="M25.012 280.658l-11.815 12.835" stroke="#00A246" stroke-width="2" stroke-linecap="round" stroke-linejoin="round"/><path d="M30.114 282.858L19.13 296.053" fill="#FFF"/><path d="M30.114 282.858L19.13 296.053" stroke="#00A246" stroke-width="2" stroke-linecap="round" stroke-linejoin="round"/><path d="M35.217 285.06l-10.155 13.55" fill="#FFF"/><path d="M35.217 285.06l-10.155 13.55" stroke="#00A246" stroke-width="2" stroke-linecap="round" stroke-linejoin="round"/><path d="M40.317 287.26l-9.326 13.911" fill="#FFF"/><path d="M40.317 287.26l-9.326 13.911" stroke="#00A246" stroke-width="2" stroke-linecap="round" stroke-linejoin="round"/><path d="M45.417 289.463l-8.493 14.268" fill="#FFF"/><path d="M45.417 289.463l-8.493 14.268" stroke="#00A246" stroke-width="2" stroke-linecap="round" stroke-linejoin="round"/><path d="M50.522 291.665l-7.665 14.626" fill="#FFF"/><path d="M50.522 291.665l-7.665 14.626" stroke="#00A246" stroke-width="2" stroke-linecap="round" stroke-linejoin="round"/><path d="M55.624 293.865l-6.836 14.984" fill="#FFF"/><path d="M55.624 293.865l-6.836 14.984" stroke="#00A246" stroke-width="2" stroke-linecap="round" stroke-linejoin="round"/><path d="M60.724 296.068l-6.007 15.34" fill="#FFF"/><path d="M60.724 296.068l-6.007 15.34" stroke="#00A246" stroke-width="2" stroke-linecap="round" stroke-linejoin="round"/><path d="M65.826 298.268l-5.174 15.702" fill="#FFF"/><path d="M65.826 298.268l-5.174 15.702" stroke="#00A246" stroke-width="2" stroke-linecap="round" stroke-linejoin="round"/><path d="M70.929 300.47l-4.348 16.056" fill="#FFF"/><path d="M70.929 300.47l-4.348 16.056" stroke="#00A246" stroke-width="2" stroke-linecap="round" stroke-linejoin="round"/><path d="M76.029 302.672l-3.517 16.416" fill="#FFF"/><path d="M76.029 302.672l-3.517 16.416" stroke="#00A246" stroke-width="2" stroke-linecap="round" stroke-linejoin="round"/><path d="M81.133 304.873l-2.688 16.775" fill="#FFF"/><path d="M81.133 304.873l-2.688 16.775" stroke="#00A246" stroke-width="2" stroke-linecap="round" stroke-linejoin="round"/><path d="M84.376 324.207l1.858-17.133-1.858 17.133z" fill="#FFF"/><path d="M86.234 307.075l-1.858 17.131" stroke="#00A246" stroke-width="2" stroke-linecap="round" stroke-linejoin="round"/><path d="M90.308 326.766l1.027-17.49-1.027 17.49z" fill="#FFF"/><path d="M91.336 309.277l-1.03 17.49M58.454 279.141L26.55 265.375 1.068 288.987l95.343 41.14-.154-34.674-32.215-13.9" stroke="#00A246" stroke-width="2" stroke-linecap="round" stroke-linejoin="round"/><path d="M110.931 173.295l-49.96 114.871" fill="#FFF"/><path d="M110.931 173.295l-49.96 114.871" stroke="#00A246" stroke-width="2" stroke-linecap="round" stroke-linejoin="round"/><path d="M55.547 285.828l49.96-114.874" fill="#FFF"/><path d="M55.547 285.828l49.96-114.874M103.701 130.152L83.776 1.942l5.846-.874 19.924 128.21M112.624 157.659l6.688-12.62M119.312 164.09l11.37-8.387M121.318 173.295l13.377-2.341M93.162 157.194l9.141 7.013M97.733 138.416l-11.035 9.868M107.02 138.375l-3.027 13.329" stroke="#00A246" stroke-width="2" stroke-linecap="round" stroke-linejoin="round"/></g></svg>