<svg xmlns="http://www.w3.org/2000/svg" width="160" height="45" viewBox="0 0 160 45"><defs><linearGradient id="a" x1="90.945%" x2="-38.003%" y1="4.557%" y2="71.61%"><stop offset="0%" stop-color="#00A0FF"/><stop offset=".657%" stop-color="#00A1FF"/><stop offset="26.01%" stop-color="#00BEFF"/><stop offset="51.22%" stop-color="#00D2FF"/><stop offset="76.04%" stop-color="#00DFFF"/><stop offset="100%" stop-color="#00E3FF"/></linearGradient><linearGradient id="b" x1="106.895%" x2="-129.535%" y1="50.016%" y2="50.016%"><stop offset="0%" stop-color="#FFE000"/><stop offset="40.87%" stop-color="#FFBD00"/><stop offset="77.54%" stop-color="orange"/><stop offset="100%" stop-color="#FF9C00"/></linearGradient><linearGradient id="c" x1="86.073%" x2="-50.35%" y1="17.818%" y2="194.955%"><stop offset="0%" stop-color="#FF3A44"/><stop offset="100%" stop-color="#C31162"/></linearGradient><linearGradient id="d" x1="-18.415%" x2="42.2%" y1="-54.245%" y2="24.853%"><stop offset="0%" stop-color="#32A071"/><stop offset="6.85%" stop-color="#2DA771"/><stop offset="47.62%" stop-color="#15CF74"/><stop offset="80.09%" stop-color="#06E775"/><stop offset="100%" stop-color="#00F076"/></linearGradient></defs><g fill="none" fill-rule="evenodd"><path fill="#000" fill-rule="nonzero" d="M160 40.5c0 2.446-2.1 4.5-4.6 4.5H4.6C2.1 45 0 42.946 0 40.5v-36C0 2.054 2.1 0 4.6 0h150.8c2.5 0 4.6 2.054 4.6 4.5v36z"/><path fill="#FFF" fill-rule="nonzero" d="M81.8 25.1c-2.8 0-5.1 2.1-5.1 5.1 0 2.9 2.3 5.1 5.1 5.1s5.1-2.2 5.1-5.1c0-3-2.3-5.1-5.1-5.1zm0 8.2c-1.5 0-2.9-1.3-2.9-3.1s1.3-3.1 2.9-3.1c1.5 0 2.9 1.3 2.9 3.1-.1 1.8-1.4 3.1-2.9 3.1zm-11.2-8.2c-2.8 0-5.1 2.1-5.1 5.1 0 2.9 2.3 5.1 5.1 5.1s5.1-2.2 5.1-5.1c0-3-2.3-5.1-5.1-5.1zm0 8.2c-1.5 0-2.9-1.3-2.9-3.1s1.3-3.1 2.9-3.1c1.5 0 2.9 1.3 2.9 3.1s-1.4 3.1-2.9 3.1zm-13.3-6.6v2.2h5.2c-.2 1.2-.6 2.1-1.2 2.7-.8.8-1.9 1.6-4 1.6-3.2 0-5.7-2.6-5.7-5.8 0-3.2 2.5-5.8 5.7-5.8 1.7 0 3 .7 3.9 1.5l1.5-1.5c-1.3-1.2-3-2.2-5.4-2.2-4.4 0-8 3.6-8 7.9 0 4.4 3.7 7.9 8 7.9 2.4 0 4.1-.8 5.5-2.2 1.4-1.4 1.9-3.4 1.9-5.1 0-.5 0-1-.1-1.4h-7.3v.2zm54.3 1.6c-.4-1.1-1.7-3.2-4.4-3.2-2.6 0-4.8 2.1-4.8 5.1 0 2.9 2.2 5.1 5.1 5.1 2.3 0 3.7-1.4 4.3-2.3l-1.7-1.2c-.6.8-1.4 1.4-2.5 1.4s-2-.5-2.5-1.5l6.8-2.8-.3-.6zm-6.9 1.7c-.1-2 1.5-3 2.7-3 .9 0 1.6.4 1.9 1.1l-4.6 1.9zm-5.6 5h2.2V20h-2.2v15zm-3.6-8.8c-.6-.6-1.5-1.1-2.8-1.1-2.6 0-4.9 2.2-4.9 5.1 0 2.9 2.3 5.1 4.9 5.1 1.2 0 2.2-.5 2.7-1.2h.1v.7c0 1.9-1 3-2.7 3-1.4 0-2.2-1-2.6-1.8l-2 .8c.6 1.4 2 3 4.5 3 2.6 0 4.9-1.5 4.9-5.3v-9.1h-2.1v.8zm-2.6 7.1c-1.5 0-2.8-1.3-2.8-3.1s1.3-3.1 2.8-3.1c1.5 0 2.7 1.3 2.7 3.1s-1.2 3.1-2.7 3.1zM122.1 20h-5.4v15h2.2v-5.7h3.1c2.5 0 4.9-1.8 4.9-4.7 0-2.9-2.3-4.6-4.8-4.6zm.1 7.2H119v-5.1h3.2c1.7 0 2.6 1.4 2.6 2.6 0 1.1-.9 2.5-2.6 2.5zm13.8-2.1c-1.6 0-3.3.7-4 2.3l2 .8c.4-.8 1.2-1.1 2-1.1 1.2 0 2.3.7 2.4 1.9v.2c-.4-.2-1.3-.6-2.3-.6-2.1 0-4.3 1.2-4.3 3.4 0 2 1.8 3.3 3.7 3.3 1.5 0 2.3-.7 2.9-1.5h.1V35h2.2v-5.7c-.1-2.7-2.1-4.2-4.7-4.2zm-.2 8.2c-.7 0-1.8-.4-1.8-1.3 0-1.2 1.3-1.6 2.4-1.6 1 0 1.4.2 2 .5-.1 1.4-1.3 2.4-2.6 2.4zm12.7-7.9l-2.6 6.5h-.1l-2.7-6.5h-2.4l4 9.1-2.3 5h2.3l6.2-14.1h-2.4zM128.3 35h2.2V20h-2.2v15z"/><g fill-rule="nonzero"><path fill="url(#a)" d="M.6 1.1C.2 1.4 0 2 0 2.8v26.5c0 .7.2 1.3.6 1.7l.1.1 14.9-14.8v-.5L.6 1.1z" transform="translate(11 7)"/><path fill="url(#b)" d="M20.5 21.1l-5-4.9v-.4l5-4.9.1.1 5.9 3.3c1.7 1 1.7 2.5 0 3.5l-5.9 3.3h-.1z" transform="translate(11 7)"/><path fill="url(#c)" d="M20.6 21.1L15.5 16 .6 30.9c.6.6 1.5.7 2.5.1l17.5-9.9" transform="translate(11 7)"/><path fill="url(#d)" d="M20.6 10.9L3 1C2 .4 1.1.5.5 1.1l15 14.9 5.1-5.1z" transform="translate(11 7)"/><path fill="#000" d="M37.4 24.6l-6 3.4.1.1 5.9-3.3c.8-.5 1.3-1.1 1.3-1.7-.1.5-.5 1-1.3 1.5z" opacity=".12"/><path fill="#FFF" d="M14 8.2l23.4 13.3c.8.4 1.2 1 1.3 1.6 0-.6-.4-1.3-1.3-1.7L14 8c-1.7-1-3-.2-3 1.8v.2c0-2 1.4-2.8 3-1.8z" opacity=".25"/><path fill="#000" d="M31.5 27.9L14 37.8c-1 .6-1.8.5-2.4 0l-.1.1.1.1c.6.5 1.4.5 2.4 0l17.5-9.9v-.2z" opacity=".2"/><path fill="#000" d="M11.6 37.8c-.3-.4-.6-.9-.6-1.7v.2c0 .7.2 1.3.6 1.7v-.2z" opacity=".12"/></g><path fill="#FFF" d="M51.629 14.226h2.889V9.42h-1.989v.585c0 1.395-.153 3.078-.9 4.221zm-1.575 0h.639c.882-1.242.999-2.889.999-4.275V8.646h3.717v5.58h.702v2.034h-.801V15h-4.428v1.26h-.828v-2.034zm7.577-2.448c0-1.827 1.431-3.24 3.267-3.24 1.836 0 3.258 1.413 3.258 3.24 0 1.872-1.422 3.33-3.258 3.33s-3.267-1.458-3.267-3.33zm.918 0c0 1.422 1.044 2.511 2.349 2.511 1.296 0 2.34-1.089 2.34-2.511 0-1.377-1.044-2.43-2.34-2.43-1.305 0-2.349 1.053-2.349 2.43zm7.298.009c0 1.863 1.287 3.321 3.258 3.321a3.366 3.366 0 002.457-1.008l-.477-.639c-.513.513-1.242.828-1.953.828-1.476 0-2.367-1.161-2.367-2.511 0-1.341.873-2.43 2.349-2.43.657 0 1.368.279 1.836.693l.45-.666c-.612-.585-1.503-.837-2.322-.837-1.89 0-3.231 1.404-3.231 3.249zM74.972 15h.882V9.42h2.187v-.774h-5.256v.774h2.187V15zm4.688-.306c.351.243.729.414 1.161.414.792 0 1.197-.639 1.449-1.278l2.025-5.184h-.936L82.18 11.85c-.135.387-.27.828-.27.828h-.018s-.162-.441-.36-.837l-1.548-3.195h-.981l2.511 4.977c-.171.441-.351.711-.72.711-.306 0-.576-.198-.729-.315l-.405.675zm6.353.306h.891V9.42h3.222V15h.891V8.646h-5.004V15zm7.478 0h.891v-2.79h3.303V15h.882V8.646h-.882v2.79h-3.303v-2.79h-.891V15zm7.154-3.222c0-1.827 1.431-3.24 3.267-3.24 1.836 0 3.258 1.413 3.258 3.24 0 1.872-1.422 3.33-3.258 3.33s-3.267-1.458-3.267-3.33zm.918 0c0 1.422 1.044 2.511 2.349 2.511 1.296 0 2.34-1.089 2.34-2.511 0-1.377-1.044-2.43-2.34-2.43-1.305 0-2.349 1.053-2.349 2.43zM112.298 15V8.646h2.223c1.08 0 1.845.594 1.845 1.62 0 .621-.306 1.116-.792 1.368v.018c.675.198 1.053.828 1.053 1.539 0 1.197-.936 1.809-2.052 1.809h-2.277zm.891-3.681h1.332c.576 0 .936-.405.936-.963 0-.558-.342-.936-.945-.936h-1.323v1.899zm0 2.907h1.431c.684 0 1.089-.432 1.089-1.089 0-.639-.423-1.08-1.089-1.08h-1.431v2.169z"/></g></svg>