<svg width="80" height="60" viewBox="0 0 80 60" fill="none" xmlns="http://www.w3.org/2000/svg"><rect width="80" height="60" rx="5" fill="#F8F8F8"/><path fill="#F8F8F8" d="M0 10h80v40H0z"/><path fill-rule="evenodd" clip-rule="evenodd" d="M50.864 33.4c0-3.068-2.452-4.406-4.404-5.47-1.3-.712-2.38-1.3-2.36-2.2 0-.718.64-1.434 2.072-1.64a8.94 8.94 0 014.79.872l.84-4.092A12.249 12.249 0 0047.26 20c-4.79 0-8.15 2.66-8.2 6.394-.048 2.812 2.42 4.346 4.248 5.266 1.828.92 2.52 1.586 2.52 2.404 0 1.28-1.532 1.894-2.914 1.894a9.66 9.66 0 01-4.988-1.228l-.89 4.244A13.34 13.34 0 0042.42 40c5.086.05 8.394-2.558 8.444-6.6zm-20.1-13.042l-7.85 19.384h-5.136l-3.852-15.496c-.248-.972-.444-1.28-1.136-1.688A19.001 19.001 0 008 20.92l.1-.562h8.246a2.28 2.28 0 012.22 1.994l2.026 11.2L25.63 20.36h5.136l-.002-.002zM68 39.742h-4.494l-.64-2.916H56.64l-.988 2.916h-5.086l7.31-17.952c.34-.874 1.164-1.444 2.074-1.432h4.148L68 39.742zm-9.926-6.854l2.568-7.262 1.48 7.262h-4.048zM33.68 39.742l4-19.384h-4.84l-4 19.384h4.84z" fill="#1A1F71"/></svg>