<svg width="25px" viewBox="0 0 25 25" fill="none" xmlns="http://www.w3.org/2000/svg" id="shipping.icon-4543b9">
<path d="M22.0002 18H24.0002V11.701C24.0002 11.247 23.8462 10.807 23.5622 10.452L21.2012 7.501C20.4412 6.553 19.2932 6 18.0772 6H16.0002V5C16.0002 3.896 15.1042 3 14.0002 3H4.00024" stroke="var(--svg-primary-color)" stroke-width="1.5" stroke-linecap="round" stroke-linejoin="round"></path>
<path fill-rule="evenodd" clip-rule="evenodd" d="M11.0002 18C11.0002 19.657 9.65724 21 8.00024 21C6.34324 21 5.00024 19.657 5.00024 18C5.00024 16.343 6.34324 15 8.00024 15C9.65724 15 11.0002 16.343 11.0002 18Z" stroke="var(--svg-primary-color)" stroke-width="1.5" stroke-linecap="round" stroke-linejoin="round"></path>
<path fill-rule="evenodd" clip-rule="evenodd" d="M21.0002 18C21.0002 19.657 19.6572 21 18.0002 21C16.3432 21 15.0002 19.657 15.0002 18C15.0002 16.343 16.3432 15 18.0002 15C19.6572 15 21.0002 16.343 21.0002 18Z" stroke="var(--svg-primary-color)" stroke-width="1.5" stroke-linecap="round" stroke-linejoin="round"></path>
<path d="M16.0002 7V11H23.5002" stroke="var(--svg-primary-color)" stroke-width="1.5" stroke-linecap="round" stroke-linejoin="round"></path>
<path d="M2.00024 7H6.00024" stroke="var(--svg-primary-color)" stroke-width="1.5" stroke-linecap="round" stroke-linejoin="round"></path>
<path d="M2.00024 11H8.00024" stroke="var(--svg-primary-color)" stroke-width="1.5" stroke-linecap="round" stroke-linejoin="round"></path>
</svg>